<svg xmlns="http://www.w3.org/2000/svg" xmlns:xlink="http://www.w3.org/1999/xlink" id="图层_1" x="0" y="0" version="1.1" viewBox="0 0 800 800" style="enable-background:new 0 0 800 800" xml:space="preserve"><style type="text/css">.st0{fill:url(#SVGID_1_)}.st1{fill:url(#SVGID_2_)}.st2{fill:url(#SVGID_3_)}.st3{fill:url(#SVGID_4_)}.st4{fill:url(#SVGID_5_)}.st5{fill:url(#SVGID_6_)}.st6{fill:url(#SVGID_7_)}.st7{fill:url(#SVGID_8_)}.st8{fill:url(#SVGID_9_)}.st9{fill:url(#SVGID_10_)}.st10{fill:url(#SVGID_11_)}.st11{fill:url(#SVGID_12_)}.st12{opacity:.69}.st13{fill:url(#SVGID_13_)}.st14{fill:url(#SVGID_14_)}.st15{fill:url(#SVGID_15_)}.st16{fill:url(#SVGID_16_)}.st17{fill:url(#SVGID_17_)}.st18{fill:url(#SVGID_18_)}.st19{fill:url(#SVGID_19_)}.st20{fill:url(#SVGID_20_)}</style><g><linearGradient id="SVGID_1_" x1="400" x2="400" y1="885" y2="139" gradientUnits="userSpaceOnUse"><stop offset=".417" style="stop-color:#f8fafc;stop-opacity:0"/><stop offset="1" style="stop-color:#eceff4"/></linearGradient><ellipse cx="400" cy="512" class="st0" rx="400" ry="373"/><g><g><linearGradient id="SVGID_2_" x1="424.5" x2="424.5" y1="297.5" y2="237.5" gradientUnits="userSpaceOnUse"><stop offset="0" style="stop-color:#a7b1c1"/><stop offset="1" style="stop-color:#c6d0e0"/></linearGradient><path d="M424.5,297.5L424.5,297.5c-6.4,0-11.5-5.1-11.5-11.5v-37c0-6.4,5.1-11.5,11.5-11.5l0,0 c6.4,0,11.5,5.1,11.5,11.5v37C436,292.4,430.9,297.5,424.5,297.5z" class="st1"/><linearGradient id="SVGID_3_" x1="424.5" x2="424.5" y1="293.5" y2="233.5" gradientUnits="userSpaceOnUse"><stop offset="0" style="stop-color:#c6d0e0"/><stop offset="1" style="stop-color:#eff2f6"/></linearGradient><path d="M424.5,293.5L424.5,293.5c-6.4,0-11.5-5.1-11.5-11.5v-37c0-6.4,5.1-11.5,11.5-11.5l0,0 c6.4,0,11.5,5.1,11.5,11.5v37C436,288.4,430.9,293.5,424.5,293.5z" class="st2"/></g><g><linearGradient id="SVGID_4_" x1="1744.915" x2="1744.915" y1="-907.543" y2="-967.543" gradientTransform="matrix(0.7071 -0.7071 0.7071 0.7071 -236.3984 2189.2837)" gradientUnits="userSpaceOnUse"><stop offset="0" style="stop-color:#a7b1c1"/><stop offset="1" style="stop-color:#c6d0e0"/></linearGradient><path d="M355.7,313.7L355.7,313.7c-4.5,4.5-11.8,4.5-16.3,0l-26.2-26.2c-4.5-4.5-4.5-11.8,0-16.3l0,0 c4.5-4.5,11.8-4.5,16.3,0l26.2,26.2C360.2,301.9,360.2,309.2,355.7,313.7z" class="st3"/><linearGradient id="SVGID_5_" x1="1748.45" x2="1748.45" y1="-908.25" y2="-968.25" gradientTransform="matrix(0.7071 -0.7071 0.7071 0.7071 -236.3984 2189.2837)" gradientUnits="userSpaceOnUse"><stop offset="0" style="stop-color:#c6d0e0"/><stop offset="1" style="stop-color:#eff2f6"/></linearGradient><path d="M357.7,310.7L357.7,310.7c-4.5,4.5-11.8,4.5-16.3,0l-26.2-26.2c-4.5-4.5-4.5-11.8,0-16.3l0,0 c4.5-4.5,11.8-4.5,16.3,0l26.2,26.2C362.2,298.9,362.2,306.2,357.7,310.7z" class="st4"/></g><g><linearGradient id="SVGID_6_" x1="351.434" x2="351.434" y1="2162.967" y2="2102.967" gradientTransform="matrix(0.7071 0.7071 -0.7071 0.7071 1764.2335 -1449.2366)" gradientUnits="userSpaceOnUse"><stop offset="0" style="stop-color:#a7b1c1"/><stop offset="1" style="stop-color:#c6d0e0"/></linearGradient><path d="M483.3,328.7L483.3,328.7c-4.5-4.5-4.5-11.8,0-16.3l26.2-26.2c4.5-4.5,11.8-4.5,16.3,0v0 c4.5,4.5,4.5,11.8,0,16.3l-26.2,26.2C495.1,333.2,487.8,333.2,483.3,328.7z" class="st5"/><linearGradient id="SVGID_7_" x1="347.899" x2="347.899" y1="2162.259" y2="2102.259" gradientTransform="matrix(0.7071 0.7071 -0.7071 0.7071 1764.2335 -1449.2366)" gradientUnits="userSpaceOnUse"><stop offset="0" style="stop-color:#c6d0e0"/><stop offset="1" style="stop-color:#eff2f6"/></linearGradient><path d="M481.3,325.7L481.3,325.7c-4.5-4.5-4.5-11.8,0-16.3l26.2-26.2c4.5-4.5,11.8-4.5,16.3,0v0 c4.5,4.5,4.5,11.8,0,16.3l-26.2,26.2C493.1,330.2,485.8,330.2,481.3,325.7z" class="st6"/></g></g><linearGradient id="SVGID_8_" x1="400" x2="400" y1="618.667" y2="421.639" gradientUnits="userSpaceOnUse"><stop offset="0" style="stop-color:#dfe2e5;stop-opacity:0"/><stop offset="1" style="stop-color:#d7dce2;stop-opacity:.5"/></linearGradient><ellipse cx="400" cy="520.2" class="st7" rx="254" ry="98.5"/><linearGradient id="SVGID_9_" x1="4714.295" x2="4714.295" y1="655.809" y2="507.996" gradientTransform="matrix(-1 0 0 1 5221.0762 0)" gradientUnits="userSpaceOnUse"><stop offset="0" style="stop-color:#dfe2e5;stop-opacity:0"/><stop offset="1" style="stop-color:#d7dce2;stop-opacity:.5"/></linearGradient><polygon points="419.1 655.8 603 655.8 549.9 524 547.7 508 410.6 508" class="st8"/><linearGradient id="SVGID_10_" x1="290.856" x2="290.856" y1="654.997" y2="507.185" gradientUnits="userSpaceOnUse"><stop offset="0" style="stop-color:#dfe2e5;stop-opacity:0"/><stop offset="1" style="stop-color:#d7dce2;stop-opacity:.5"/></linearGradient><polygon points="371.1 655 202.1 655 255.2 523.2 257.4 507.2 379.6 507.2" class="st9"/><g><g><linearGradient id="SVGID_11_" x1="505.172" x2="677.992" y1="267.73" y2="267.73" gradientTransform="matrix(0.9962 -8.720642e-02 8.720642e-02 0.9962 -127.0536 238.7219)" gradientUnits="userSpaceOnUse"><stop offset="0" style="stop-color:#a7b1c1"/><stop offset="1" style="stop-color:#c6d0e0"/></linearGradient><path d="M557.7,372.9l-76.7-6.7l-42.5,43.7l21.3,37.1l-50,46.8l-5.7,20.3l7.4,11.1l131.9,11.5 c5,0.4,9.4-3.2,9.9-8.3L566,382.8c0.4-4.6-2.9-19-15.6-20.9C549.9,361.7,558.1,373,557.7,372.9z" class="st10"/><linearGradient id="SVGID_12_" x1="639.866" x2="551.081" y1="343.575" y2="189.795" gradientTransform="matrix(0.9962 -8.720642e-02 8.720642e-02 0.9962 -127.0536 238.7219)" gradientUnits="userSpaceOnUse"><stop offset="0" style="stop-color:#c6d0e0"/><stop offset="1" style="stop-color:#eff2f6"/></linearGradient><path d="M550.3,361.8l-76.7-6.7l-42.5,43.7l21.3,37.1l-50,46.8l1.7,31.3L536,525.6c5,0.4,9.4-3.2,9.9-8.3 l12.7-145.6C559.1,366.7,555.4,362.3,550.3,361.8z" class="st11"/></g><g class="st12"><linearGradient id="SVGID_13_" x1="412.013" x2="392.308" y1="547.15" y2="513.02" gradientTransform="matrix(0.9982 5.931243e-02 -5.931243e-02 0.9982 93.4923 -149.4643)" gradientUnits="userSpaceOnUse"><stop offset="0" style="stop-color:#a7b1c1"/><stop offset="1" style="stop-color:#c6d0e0"/></linearGradient><path d="M437.4,409.7l49.6,2.9c0.3,0,0.6,0.1,0.9,0.1c3.5-0.1,6.3-2.9,6.3-6.5c-0.1-3.5-2.9-6.3-6.5-6.3l-54.6-3.2 l-2.1,2.2L437.4,409.7z" class="st13"/><linearGradient id="SVGID_14_" x1="405.879" x2="386.125" y1="611.598" y2="577.382" gradientTransform="matrix(0.9982 5.931243e-02 -5.931243e-02 0.9982 93.4923 -149.4643)" gradientUnits="userSpaceOnUse"><stop offset="0" style="stop-color:#a7b1c1"/><stop offset="1" style="stop-color:#c6d0e0"/></linearGradient><path d="M416.5,469.5c0.3,0,0.6,0.1,1,0.1l65.9,3.9c0.3,0,0.6,0.1,0.9,0.1c3.5-0.1,6.3-2.9,6.3-6.5 c-0.1-3.5-2.9-6.3-6.5-6.3l-54.8-3.2L416.5,469.5z" class="st14"/><linearGradient id="SVGID_15_" x1="424.913" x2="406.079" y1="577.155" y2="544.533" gradientTransform="matrix(0.9982 5.931243e-02 -5.931243e-02 0.9982 93.4923 -149.4643)" gradientUnits="userSpaceOnUse"><stop offset="0" style="stop-color:#a7b1c1"/><stop offset="1" style="stop-color:#c6d0e0"/></linearGradient><path d="M447.6,440.4l50.4,2.9c0.3,0,0.6,0.1,0.9,0.1c3.5-0.1,6.3-2.9,6.3-6.5c-0.1-3.5-2.9-6.3-6.5-6.3l-51.1-3 l4.6,8.3L447.6,440.4z" class="st15"/></g></g><g><g><linearGradient id="SVGID_16_" x1="102.593" x2="251.286" y1="831.985" y2="683.292" gradientTransform="matrix(0.9896 0.1441 -0.1441 0.9896 247.4811 -338.0074)" gradientUnits="userSpaceOnUse"><stop offset="0" style="stop-color:#a7b1c1"/><stop offset="1" style="stop-color:#c6d0e0"/></linearGradient><path d="M360.8,499.7l36.7-51.1l-28.6-32.1l23.7-49l-37.7,1.1c-2.6,0.1-5.1-1-6.9-2.9l-18.2-19.3 c-1.7-1.9-4.3-2.9-6.9-2.9l-60.2,1.8l1.5-10.3c-16.7,1.8-18.1,14.8-17.9,19.9l5.2,172.2c0.2,5,4.3,9,9.4,8.8l116.9-3.5l9-10.5 L360.8,499.7z" class="st16"/><linearGradient id="SVGID_17_" x1="111.714" x2="260.407" y1="821.976" y2="673.283" gradientTransform="matrix(0.9896 0.1441 -0.1441 0.9896 247.4811 -338.0074)" gradientUnits="userSpaceOnUse"><stop offset="0" style="stop-color:#c6d0e0"/><stop offset="1" style="stop-color:#eff2f6"/></linearGradient><path d="M369.8,489.2l36.7-51.1L378,406.1l23.7-49l-37.7,1.1c-2.6,0.1-5.1-1-6.9-2.9l-18.2-19.3 c-1.7-1.9-4.3-2.9-6.9-2.9l-67.8,2c-5,0.2-9,4.3-8.9,9.4l5.2,172.2c0.2,5,4.3,9,9.4,8.8l116.9-3.5L369.8,489.2z" class="st17"/></g><g class="st12"><linearGradient id="SVGID_18_" x1="4907.572" x2="4887.69" y1="386.298" y2="351.861" gradientTransform="matrix(-1 2.063334e-03 2.063334e-03 1 5249.2227 18.9749)" gradientUnits="userSpaceOnUse"><stop offset="0" style="stop-color:#a7b1c1"/><stop offset="1" style="stop-color:#c6d0e0"/></linearGradient><path d="M378.1,406.2l-49.4,0.1c-0.3,0-0.6,0-0.9,0c-3.5-0.3-6.2-3.3-5.9-6.8c0.3-3.5,3.3-6.2,6.8-5.9l55.3-0.1 l-6.1,12.6L378.1,406.2z" class="st18"/><linearGradient id="SVGID_19_" x1="4904.052" x2="4881.364" y1="449.236" y2="409.939" gradientTransform="matrix(-1 2.063334e-03 2.063334e-03 1 5249.2227 18.9749)" gradientUnits="userSpaceOnUse"><stop offset="0" style="stop-color:#a7b1c1"/><stop offset="1" style="stop-color:#c6d0e0"/></linearGradient><path d="M395.1,454.1l-66.2,0.3c-3.5-0.3-6.6,2.4-6.8,5.9c-0.3,3.5,2.4,6.6,5.9,6.8c0.3,0,0.6,0,0.9,0 c0,0,33.3-0.1,56.9-0.2L395.1,454.1z" class="st19"/><linearGradient id="SVGID_20_" x1="4905.37" x2="4880.034" y1="425.022" y2="381.138" gradientTransform="matrix(-1 2.063334e-03 2.063334e-03 1 5249.2227 18.9749)" gradientUnits="userSpaceOnUse"><stop offset="0" style="stop-color:#a7b1c1"/><stop offset="1" style="stop-color:#c6d0e0"/></linearGradient><path d="M405.2,436.7l-89.3-0.3c-0.3,0-0.6,0-0.9,0c-3.5-0.3-6.2-3.3-5.9-6.8c0.3-3.5,3.3-6.2,6.8-5.9l77.9,0.3 L405.2,436.7z" class="st20"/></g></g></g></svg>